<svg width="24" height="24" viewBox="0 0 24 24" fill="none" xmlns="http://www.w3.org/2000/svg">
  <path fill-rule="evenodd" clip-rule="evenodd" d="M15.9071 4.78152H8.09334C7.74124 4.78152 7.50731 4.5185 7.50731 4.19583C7.50731 3.87316 7.74124 3.61014 8.09334 3.61014H15.9071C16.2592 3.61014 16.4931 3.87316 16.4931 4.19583C16.4931 4.5185 16.2592 4.78152 15.9071 4.78152ZM19.814 8.68614H4.18646C3.83437 8.68614 3.60043 8.42312 3.60043 8.10045C3.60043 7.77778 3.83437 7.51476 4.18646 7.51476H19.814C20.1661 7.51476 20.4 7.77778 20.4 8.10045C20.4 8.42312 20.1661 8.68614 19.814 8.68614ZM8.09334 12.5908C7.74124 12.5908 7.50731 12.3277 7.50731 12.0051C7.50731 11.6824 7.74124 11.4194 8.09334 11.4194H15.9071C16.2592 11.4194 16.4931 11.6824 16.4931 12.0051C16.4931 12.3277 16.2592 12.5908 15.9071 12.5908H8.09334ZM19.814 16.4954H4.18646C3.83437 16.4954 3.60043 16.2324 3.60043 15.9097C3.60043 15.587 3.83437 15.324 4.18646 15.324H19.814C20.1661 15.324 20.4 15.587 20.4 15.9097C20.4 16.2324 20.1661 16.4954 19.814 16.4954ZM15.9071 20.4H8.09334C7.74124 20.4 7.50731 20.137 7.50731 19.8143C7.50731 19.4916 7.74124 19.2286 8.09334 19.2286H15.9071C16.2592 19.2286 16.4931 19.4916 16.4931 19.8143C16.4931 20.137 16.2592 20.4 15.9071 20.4Z" fill="#92929D"/>
</svg>
