<svg width="24" height="24" viewBox="0 0 24 24" fill="none" xmlns="http://www.w3.org/2000/svg">
  <path fill-rule="evenodd" clip-rule="evenodd" d="M12 4.7721C11.6479 4.7721 11.414 4.50892 11.414 4.18605C11.414 3.86319 11.6479 3.60001 12 3.60001H19.814C20.1661 3.60001 20.4 3.86319 20.4 4.18605C20.4 4.50892 20.1661 4.7721 19.814 4.7721H12ZM4.18605 8.67908C3.83394 8.67908 3.60001 8.41589 3.60001 8.09303C3.60001 7.77016 3.83394 7.50698 4.18605 7.50698H19.814C20.1661 7.50698 20.4 7.77016 20.4 8.09303C20.4 8.41589 20.1661 8.67908 19.814 8.67908H4.18605ZM19.814 12.5861H12C11.6479 12.5861 11.414 12.3229 11.414 12C11.414 11.6771 11.6479 11.414 12 11.414H19.814C20.1661 11.414 20.4 11.6771 20.4 12C20.4 12.3229 20.1661 12.5861 19.814 12.5861ZM4.18605 16.493C3.83394 16.493 3.60001 16.2298 3.60001 15.907C3.60001 15.5841 3.83394 15.3209 4.18605 15.3209H19.814C20.1661 15.3209 20.4 15.5841 20.4 15.907C20.4 16.2298 20.1661 16.493 19.814 16.493H4.18605ZM12 20.4C11.6479 20.4 11.414 20.1368 11.414 19.814C11.414 19.4911 11.6479 19.2279 12 19.2279H19.814C20.1661 19.2279 20.4 19.4911 20.4 19.814C20.4 20.1368 20.1661 20.4 19.814 20.4H12Z" fill="#92929D"/>
</svg>
