<svg width="24" height="24" viewBox="0 0 24 24" fill="none" xmlns="http://www.w3.org/2000/svg">
  <path fill-rule="evenodd" clip-rule="evenodd" d="M12 4.7721H4.18605C3.83394 4.7721 3.60001 4.50892 3.60001 4.18605C3.60001 3.86319 3.83394 3.60001 4.18605 3.60001H12C12.3521 3.60001 12.5861 3.86319 12.5861 4.18605C12.5861 4.50892 12.3521 4.7721 12 4.7721ZM19.814 8.67908H4.18605C3.83394 8.67908 3.60001 8.41589 3.60001 8.09303C3.60001 7.77016 3.83394 7.50698 4.18605 7.50698H19.814C20.1661 7.50698 20.4 7.77016 20.4 8.09303C20.4 8.41589 20.1661 8.67908 19.814 8.67908ZM4.18605 12.5861C3.83394 12.5861 3.60001 12.3229 3.60001 12C3.60001 11.6771 3.83394 11.414 4.18605 11.414H12C12.3521 11.414 12.5861 11.6771 12.5861 12C12.5861 12.3229 12.3521 12.5861 12 12.5861H4.18605ZM19.814 16.493H4.18605C3.83394 16.493 3.60001 16.2298 3.60001 15.907C3.60001 15.5841 3.83394 15.3209 4.18605 15.3209H19.814C20.1661 15.3209 20.4 15.5841 20.4 15.907C20.4 16.2298 20.1661 16.493 19.814 16.493ZM12 20.4H4.18605C3.83394 20.4 3.60001 20.1368 3.60001 19.814C3.60001 19.4911 3.83394 19.2279 4.18605 19.2279H12C12.3521 19.2279 12.5861 19.4911 12.5861 19.814C12.5861 20.1368 12.3521 20.4 12 20.4Z" fill="#92929D"/>
</svg>
