<svg width="24" height="24" viewBox="0 0 24 24" fill="none" xmlns="http://www.w3.org/2000/svg">
  <path fill-rule="evenodd" clip-rule="evenodd" d="M6.60669 20.0175C6.27532 20.0175 6.00669 19.7489 6.00669 19.4175V5.01753C6.00669 4.68616 6.27532 4.41753 6.60669 4.41753H13.0067C15.1148 4.41753 16.8067 6.30462 16.8067 8.61753C16.8067 9.85783 16.3202 10.9757 15.5438 11.7457C17.1945 12.2072 18.4067 13.8598 18.4067 15.8175C18.4067 18.1304 16.7148 20.0175 14.6067 20.0175H6.60669ZM7.20669 18.8175H14.6067C16.0322 18.8175 17.2067 17.4817 17.2067 15.8175C17.2067 14.1533 16.0322 12.8175 14.6067 12.8175H7.20669V18.8175ZM7.20669 11.6175H13.0067C14.4322 11.6175 15.6067 10.2817 15.6067 8.61753C15.6067 6.95333 14.4322 5.61753 13.0067 5.61753H7.20669V11.6175Z" fill="#92929D"/>
</svg>
