<svg width="24" height="24" viewBox="0 0 24 24" fill="none" xmlns="http://www.w3.org/2000/svg">
  <path fill-rule="evenodd" clip-rule="evenodd" d="M11.1895 18.8012H13.6C13.9314 18.8012 14.2 19.0698 14.2 19.4012C14.2 19.7326 13.9314 20.0012 13.6 20.0012H10.4178C10.4063 20.0016 10.3947 20.0016 10.3831 20.0012H7.20001C6.86864 20.0012 6.60001 19.7326 6.60001 19.4012C6.60001 19.0698 6.86864 18.8012 7.20001 18.8012H9.94408L13.6108 5.60122H11.2C10.8686 5.60122 10.6 5.33259 10.6 5.00122C10.6 4.66985 10.8686 4.40122 11.2 4.40122H14.392C14.3972 4.40115 14.4024 4.40115 14.4075 4.40122L17.6 4.40122C17.9314 4.40122 18.2 4.66985 18.2 5.00122C18.2 5.33259 17.9314 5.60122 17.6 5.60122H14.8562L11.1895 18.8012Z" fill="#92929D"/>
</svg>
