<svg width="24" height="24" viewBox="0 0 24 24" fill="none" xmlns="http://www.w3.org/2000/svg">
  <path fill-rule="evenodd" clip-rule="evenodd" d="M19.153 5.98472L18.0153 4.847C17.1526 3.98434 15.754 3.98434 14.8913 4.847L12.047 7.69131C11.1843 8.55397 11.1843 9.95262 12.047 10.8153L12.1988 10.9671L10.9671 12.1988L10.8153 12.047C9.95263 11.1843 8.55398 11.1843 7.69132 12.047L4.84701 14.8913C3.98435 15.754 3.98435 17.1526 4.84701 18.0153L5.98473 19.153C6.84739 20.0157 8.24605 20.0157 9.10871 19.153L11.953 16.3087C12.8157 15.446 12.8157 14.0474 11.953 13.1847L11.8156 13.0473L13.0473 11.8156L13.1847 11.953C14.0474 12.8157 15.446 12.8157 16.3087 11.953L19.153 9.1087C20.0157 8.24603 20.0157 6.84738 19.153 5.98472ZM13.8959 10.9671L14.0333 11.1045C14.4273 11.4985 15.0661 11.4985 15.4602 11.1045L18.3045 8.26017C18.6985 7.86613 18.6985 7.22728 18.3045 6.83325L17.1668 5.69553C16.7727 5.30149 16.1339 5.30149 15.7398 5.69553L12.8955 8.53983C12.5015 8.93387 12.5015 9.57272 12.8955 9.96675L13.0473 10.1186L13.983 9.18295C14.2379 8.92804 14.5978 8.94921 14.8315 9.18295C15.0652 9.41668 15.0864 9.77657 14.8315 10.0315L13.8959 10.9671ZM10.1186 13.0473L9.18296 13.9829C8.92805 14.2379 8.94922 14.5977 9.18296 14.8315C9.4167 15.0652 9.77658 15.0864 10.0315 14.8315L10.9671 13.8959L11.1045 14.0332C11.4985 14.4273 11.4985 15.0661 11.1045 15.4602L8.26018 18.3045C7.86615 18.6985 7.22729 18.6985 6.83326 18.3045L5.69554 17.1668C5.3015 16.7727 5.3015 16.1339 5.69554 15.7398L8.53985 12.8955C8.93388 12.5015 9.57273 12.5015 9.96676 12.8955L10.1186 13.0473Z" fill="#92929D"/>
</svg>
