<svg width="24" height="24" viewBox="0 0 24 24" fill="none" xmlns="http://www.w3.org/2000/svg">
  <path fill-rule="evenodd" clip-rule="evenodd" d="M17.6 3.60132C17.2686 3.60132 17 3.86995 17 4.20132V11.4013C17 14.1627 14.7614 16.4013 12 16.4013C9.23858 16.4013 7 14.1627 7 11.4013V4.20132C7 3.86995 6.73137 3.60132 6.4 3.60132C6.06863 3.60132 5.8 3.86995 5.8 4.20132V11.4013C5.8 14.8255 8.57583 17.6013 12 17.6013C15.4242 17.6013 18.2 14.8255 18.2 11.4013V4.20132C18.2 3.86995 17.9314 3.60132 17.6 3.60132ZM5 19.4013C5 19.7327 5.26863 20.0013 5.6 20.0013H18.4C18.7314 20.0013 19 19.7327 19 19.4013C19 19.0699 18.7314 18.8013 18.4 18.8013H5.6C5.26863 18.8013 5 19.0699 5 19.4013Z" fill="#92929D"/>
</svg>
